# 3ds Max Wavefront OBJ Exporter v0.97b - (c)2007 guruware
# File Created: 14.10.2015 00:13:06

mtllib 3d-model.mtl

#
# object Layer0_001
#

v  70.3432 93.8125 -29.7140
v  -22.5989 93.8125 22.6315
v  46.7692 93.8125 44.7697
v  -15.1004 0.0000 62.8662
v  -70.3432 0.0000 7.6235
v  0.1465 0.0000 -62.8662
v  55.5218 0.0000 -7.7561
v  -24.6253 93.8125 -60.0223
v  -48.3779 93.8125 14.4044
v  57.6961 46.9063 -44.4660
v  -42.1789 46.9063 -44.4660
v  -41.9914 46.9063 33.6590
v  57.6961 46.9063 33.6590
# 13 vertices

vn 0.0000 1.0000 -0.0000
vn 0.0000 -1.0000 -0.0000
vn 0.4485 -0.8824 0.1420
vn -0.4673 0.8841 0.0011
vn 0.0000 0.8852 -0.4653
vn -0.1426 -0.8832 0.4468
vn 0.4951 0.8689 -0.0000
vn -0.4681 -0.8710 -0.1494
vn 0.0000 0.8942 0.4477
vn 0.1351 -0.8958 -0.4235
vn -0.2796 0.9185 -0.2796
vn 0.0000 -0.8994 0.4371
vn -0.3855 0.8383 0.3855
vn 0.5416 -0.8406 -0.0000
vn 0.3129 0.8967 0.3129
vn -0.0000 -0.9163 -0.4004
vn 0.5205 0.6749 -0.5230
vn -0.7421 -0.6703 0.0018
# 18 vertex normals

vt 6.2408 3.5207 0.0000
vt 1.0774 0.6126 0.0000
vt 4.9311 -0.6173 0.0000
vt -1.4939 -1.6226 0.0000
vt 1.5751 1.4464 0.0000
vt -2.3410 5.3625 0.0000
vt -5.4174 2.3008 0.0000
vt 0.9648 5.2045 0.0000
vt -0.3548 1.0697 0.0000
vt 0.0000 0.0000 0.0000
vt 5.2398 6.7649 0.0000
vt 0.8995 6.7649 0.0000
vt -0.0000 1.2260 0.0000
vt 0.6291 6.7939 0.0000
vt -4.3403 1.2178 0.0000
vt 0.0000 1.2178 0.0000
vt -5.5382 -2.6294 0.0000
vt 0.0104 -2.6294 0.0000
vt -4.9311 2.9713 0.0000
vt 0.8401 1.6395 0.0000
vt -0.6632 1.6395 0.0000
vt 3.9564 -3.9169 0.0000
vt 4.8854 1.6395 0.0000
vt 4.3403 -3.5218 0.0000
vt 5.2045 1.7419 0.0000
vt -0.0000 -3.5218 0.0000
vt -5.8186 -2.1657 0.0000
vt -0.9112 3.1383 0.0000
vt -5.2515 3.1383 0.0000
vt 5.5382 1.1667 0.0000
vt 0.9648 6.9872 0.0000
vt 0.0000 1.1667 0.0000
vt -4.8750 7.0208 0.0000
vt 0.0000 1.1583 0.0000
vt 0.6632 7.0208 0.0000
vt -3.9161 4.6274 0.0000
vt -5.4472 -1.9624 0.0000
vt 0.0910 -1.9624 0.0000
vt 5.5382 1.1390 0.0000
vt -0.0000 1.1390 0.0000
vt 2.3410 -4.8232 0.0000
vt 3.9161 4.7036 0.0000
vt -2.1365 -0.0763 0.0000
vt 2.2037 -0.0763 0.0000
vt 0.0000 6.0669 0.0000
vt -1.6226 1.2558 0.0000
vt 4.3403 6.0669 0.0000
vt 5.4576 -1.9762 0.0000
vt 3.0617 3.9120 0.0000
vt -0.0910 -1.9762 0.0000
vt -5.5382 5.0206 0.0000
vt -1.4939 -1.4868 0.0000
vt 0.0104 5.0206 0.0000
vt -2.2168 -3.6797 0.0000
vt 2.1235 -3.6797 0.0000
vt 3.0690 -0.1483 0.0000
vt -12.0530 -3.5501 0.0000
vt -0.0000 4.3510 0.0000
vt -9.7657 4.3510 0.0000
# 59 texture coords

g Layer0_001
usemtl wire_087224198
s off
f 1/1/1 2/2/1 3/3/1 
f 4/4/2 5/5/2 6/6/2 7/7/2 
f 8/8/1 9/9/1 2/2/1 1/1/1 
f 10/10/1 11/10/1 12/10/1 13/10/1 
f 1/11/3 3/12/3 12/13/3 
f 3/14/4 11/15/4 12/16/4 
f 10/17/5 11/18/5 3/19/5 
f 2/20/6 9/21/6 10/22/6 3/23/6 
f 10/24/7 8/25/7 13/26/7 
f 10/27/8 9/28/8 8/29/8 
f 13/30/9 8/31/9 12/32/9 
f 1/33/10 12/34/10 8/35/10 
f 13/36/11 6/37/11 5/38/11 
f 13/39/12 12/40/12 6/41/12 
f 13/42/13 5/43/13 4/44/13 
f 13/45/14 4/46/14 10/47/14 
f 7/48/15 11/49/15 4/50/15 
f 10/51/16 4/52/16 11/53/16 
f 7/54/17 6/55/17 11/56/17 
f 6/57/18 12/58/18 11/59/18 
# 4 polygons - 16 triangles

