# Exported from Bryce 6.0
# DAZ Productions, Inc.

mtllib quad04.mtl

g def_surf_mat_1
v -0.517081 3.574877 -1.200564
v -0.469886 3.580050 -1.205743
v -0.469886 3.530530 -1.239129
v -0.527713 3.526186 -1.228852
v -0.469886 3.469886 -1.251374
v -0.530530 3.469886 -1.239129
v -0.559839 3.559840 -1.185526
v -0.574877 3.517075 -1.200564
v -0.580056 3.469886 -1.205743
v -0.603165 3.527713 -1.151874
v -0.613441 3.469886 -1.156217
v -0.613441 3.530530 -1.095573
v -0.625687 3.469886 -1.095573
v -0.574877 3.574877 -1.142768
v -0.580056 3.580050 -1.095573
v -0.530530 3.613441 -1.095573
v -0.526186 3.603165 -1.153400
v -0.469886 3.625687 -1.095573
v -0.469886 3.613441 -1.156217
v 2.334539 3.613441 -1.156217
v 2.392364 3.603165 -1.151874
v 2.381732 3.574877 -1.200564
v 2.334539 3.580050 -1.205743
v 2.334539 3.625687 -1.095573
v 2.395183 3.613441 -1.095573
v 2.439531 3.574877 -1.142768
v 2.424490 3.559840 -1.185526
v 2.444706 3.580050 -1.095573
v 2.478096 3.530530 -1.095573
v 2.467819 3.526186 -1.153400
v 2.490340 3.469886 -1.095573
v 2.478096 3.469886 -1.156217
v 2.439531 3.517075 -1.200564
v 2.444706 3.469886 -1.205743
v 2.395183 3.469886 -1.239129
v 2.390838 3.527713 -1.228852
v 2.334539 3.530530 -1.239129
v 2.334539 3.469886 -1.251374
v 2.444706 0.665461 -1.205743
v 2.478096 0.665461 -1.156217
v 2.467819 0.607634 -1.151874
v 2.439531 0.618266 -1.200564
v 2.490340 0.665461 -1.095573
v 2.478096 0.604817 -1.095573
v 2.439531 0.560470 -1.142768
v 2.424490 0.575508 -1.185526
v 2.444706 0.555291 -1.095573
v 2.395183 0.521899 -1.095573
v 2.390838 0.532182 -1.153400
v 2.334539 0.521899 -1.156217
v 2.334539 0.509660 -1.095573
v 2.381732 0.560470 -1.200564
v 2.334539 0.555291 -1.205743
v 2.334539 0.604817 -1.239129
v 2.392364 0.609161 -1.228852
v 2.334539 0.665461 -1.251374
v 2.395183 0.665461 -1.239129
v -0.530530 0.665461 -1.239129
v -0.526186 0.607634 -1.228852
v -0.574877 0.618266 -1.200564
v -0.580056 0.665461 -1.205743
v -0.469886 0.665461 -1.251374
v -0.469886 0.604817 -1.239129
v -0.517081 0.560470 -1.200564
v -0.559839 0.575508 -1.185526
v -0.469886 0.555291 -1.205743
v -0.469886 0.521899 -1.156217
v -0.527713 0.532182 -1.151874
v -0.469886 0.509660 -1.095573
v -0.530530 0.521899 -1.095573
v -0.574877 0.560470 -1.142768
v -0.580056 0.555291 -1.095573
v -0.603165 0.609161 -1.153400
v -0.613441 0.604817 -1.095573
v -0.613441 0.665461 -1.156217
v -0.625687 0.665461 -1.095573
v -0.603165 3.526186 4.882706
v -0.574877 3.574877 4.872074
v -0.580056 3.580050 4.824879
v -0.613441 3.530530 4.824879
v -0.613441 3.469886 4.885523
v -0.625687 3.469886 4.824879
v -0.574877 3.517075 4.929870
v -0.559839 3.559840 4.914832
v -0.580056 3.469886 4.935049
v -0.530530 3.469886 4.968434
v -0.526186 3.527713 4.958158
v -0.469886 3.469886 4.980680
v -0.469886 3.530530 4.968434
v -0.517081 3.574877 4.929870
v -0.469886 3.580050 4.935049
v -0.469886 3.613441 4.885523
v -0.527713 3.603165 4.881179
v -0.469886 3.625687 4.824879
v -0.530530 3.613441 4.824879
v 2.439531 3.574877 4.872074
v 2.444706 3.580050 4.824879
v 2.395183 3.613441 4.824879
v 2.390838 3.603165 4.882706
v 2.334539 3.613441 4.885523
v 2.334539 3.625687 4.824879
v 2.424490 3.559840 4.914832
v 2.381732 3.574877 4.929870
v 2.334539 3.580050 4.935049
v 2.334539 3.530530 4.968434
v 2.392364 3.526186 4.958158
v 2.334539 3.469886 4.980680
v 2.395183 3.469886 4.968434
v 2.439531 3.517075 4.929870
v 2.444706 3.469886 4.935049
v 2.478096 3.469886 4.885523
v 2.467819 3.527713 4.881179
v 2.490340 3.469886 4.824879
v 2.478096 3.530530 4.824879
v 2.444706 0.555291 4.824879
v 2.478096 0.604817 4.824879
v 2.467819 0.609161 4.882706
v 2.439531 0.560470 4.872074
v 2.490340 0.665461 4.824879
v 2.478096 0.665461 4.885523
v 2.439531 0.618266 4.929870
v 2.424490 0.575508 4.914832
v 2.444706 0.665461 4.935049
v 2.395183 0.665461 4.968434
v 2.390838 0.607634 4.958158
v 2.334539 0.604817 4.968434
v 2.334539 0.665461 4.980680
v 2.381732 0.560470 4.929870
v 2.334539 0.555291 4.935049
v 2.334539 0.521899 4.885523
v 2.392364 0.532182 4.881179
v 2.334539 0.509660 4.824879
v 2.395183 0.521899 4.824879
v -0.530530 0.521899 4.824879
v -0.526186 0.532182 4.882706
v -0.574877 0.560470 4.872074
v -0.580056 0.555291 4.824879
v -0.469886 0.509660 4.824879
v -0.469886 0.521899 4.885523
v -0.517081 0.560470 4.929870
v -0.559839 0.575508 4.914832
v -0.469886 0.555291 4.935049
v -0.469886 0.604817 4.968434
v -0.527713 0.609161 4.958158
v -0.469886 0.665461 4.980680
v -0.530530 0.665461 4.968434
v -0.574877 0.618266 4.929870
v -0.580056 0.665461 4.935049
v -0.603165 0.607634 4.881179
v -0.613441 0.665461 4.885523
v -0.613441 0.604817 4.824879
v -0.625687 0.665461 4.824879
usemtl material_1
vn -0.409031 1.051226 -1.054782
vn -0.095519 1.139117 -1.053426
vn -0.138394 0.684054 -1.389013
vn -0.545207 0.540247 -1.334630
vn -0.131062 0.175874 -1.556525
vn -0.590530 0.135910 -1.428259
vn -0.862558 0.905299 -0.905859
vn -1.039193 0.492115 -1.015897
vn -1.098730 0.128537 -1.086128
vn -1.311776 0.558780 -0.553760
vn -1.422692 0.149579 -0.593582
vn -1.462995 0.498398 -0.147058
vn -1.560812 0.103691 -0.156034
vn -1.035281 1.019258 -0.494599
vn -1.169137 1.017249 -0.126050
vn -0.684075 1.389000 -0.138383
vn -0.540263 1.334632 -0.545188
vn -0.205182 1.551501 -0.152902
vn -0.135876 1.428241 -0.590564
vn 0.138389 1.388998 -0.684075
vn 0.545178 1.334633 -0.540279
vn 0.434151 1.089872 -1.003428
vn 0.126055 1.017250 -1.169136
vn 0.131060 1.556525 -0.175872
vn 0.590572 1.428235 -0.135875
vn 1.039190 1.015870 -0.492100
vn 0.862527 0.905853 -0.905354
vn 1.098788 1.086126 -0.128455
vn 1.422642 0.593649 -0.149576
vn 1.311759 0.553779 -0.558770
vn 1.560820 0.156012 -0.103676
vn 1.462999 0.147055 -0.498380
vn 1.035254 0.494614 -1.019310
vn 1.169100 0.126085 -1.017273
vn 0.628274 0.162571 -1.408964
vn 0.528051 0.638762 -1.297953
vn 0.147058 0.498399 -1.462995
vn 0.187239 0.124429 -1.555640
vn 1.098739 -0.128503 -1.086140
vn 1.422668 -0.149576 -0.593610
vn 1.311773 -0.558773 -0.553766
vn 1.039161 -0.492138 -1.015900
vn 1.555649 -0.124411 -0.187214
vn 1.462999 -0.498380 -0.147054
vn 1.035261 -1.019280 -0.494657
vn 0.862502 -0.905355 -0.905888
vn 1.169142 -1.017245 -0.126074
vn 0.628302 -1.408932 -0.162589
vn 0.528105 -1.297925 -0.638834
vn 0.147083 -1.423039 -0.593876
vn 0.155957 -1.555611 -0.155959
vn 0.434207 -1.003395 -1.089888
vn 0.126123 -1.097620 -1.088738
vn 0.138417 -0.588547 -1.428969
vn 0.545180 -0.540280 -1.334633
vn 0.152905 -0.152844 -1.556732
vn 0.590533 -0.135904 -1.428257
vn -0.684015 -0.138412 -1.389036
vn -0.540264 -0.545189 -1.334632
vn -1.035252 -0.494636 -1.019288
vn -1.169116 -0.126098 -1.017236
vn -0.175873 -0.175927 -1.552040
vn -0.135904 -0.685996 -1.388327
vn -0.409100 -1.054746 -1.051244
vn -0.862533 -0.905861 -0.905335
vn -0.095576 -1.139082 -1.053439
vn -0.138460 -1.428950 -0.588508
vn -0.545213 -1.334620 -0.540288
vn -0.152879 -1.556743 -0.152817
vn -0.590489 -1.428241 -0.135955
vn -1.039198 -1.015868 -0.492159
vn -1.098792 -1.086086 -0.128526
vn -1.311790 -0.553763 -0.558767
vn -1.422691 -0.593583 -0.149579
vn -1.463013 -0.147057 -0.498372
vn -1.555640 -0.187241 -0.124429
vn -1.311776 0.553775 0.558766
vn -1.039207 1.015856 0.492099
vn -1.098784 1.086111 0.128479
vn -1.422666 0.593620 0.149579
vn -1.463012 0.147058 0.498373
vn -1.555640 0.187241 0.124429
vn -1.035266 0.494615 1.019300
vn -0.862558 0.905825 0.905334
vn -1.169112 0.126109 1.017239
vn -0.684019 0.138418 1.389032
vn -0.540281 0.545173 1.334630
vn -0.205186 0.152905 1.551500
vn -0.135887 0.590552 1.428249
vn -0.409031 1.054767 1.051241
vn -0.095519 1.053390 1.139150
vn -0.138383 1.389000 0.684074
vn -0.545189 1.334632 0.540261
vn -0.131059 1.556526 0.175870
vn -0.590565 1.428240 0.135876
vn 1.035270 1.019269 0.494597
vn 1.169125 1.017283 0.126027
vn 0.628321 1.408937 0.162541
vn 0.528023 1.297952 0.638785
vn 0.147056 1.462987 0.498410
vn 0.187235 1.555641 0.124426
vn 0.862527 0.905319 0.905887
vn 0.434150 1.003416 1.089880
vn 0.126052 1.169108 1.017280
vn 0.138399 0.684054 1.389012
vn 0.545197 0.540264 1.334631
vn 0.131062 0.175876 1.556524
vn 0.590537 0.135909 1.428253
vn 1.039176 0.492116 1.015910
vn 1.098735 0.128513 1.086144
vn 1.422667 0.149576 0.593611
vn 1.311759 0.558785 0.553764
vn 1.555649 0.124411 0.187214
vn 1.462982 0.498405 0.147055
vn 1.098796 -1.086102 0.128502
vn 1.422667 -0.593611 0.149576
vn 1.311773 -0.553767 0.558772
vn 1.039181 -1.015881 0.492160
vn 1.560820 -0.156012 0.103676
vn 1.462999 -0.147054 0.498380
vn 1.035240 -0.494635 1.019299
vn 0.862502 -0.905888 0.905355
vn 1.169104 -0.126074 1.017270
vn 0.628270 -0.162566 1.408967
vn 0.528054 -0.638767 1.297958
vn 0.147058 -0.593844 1.423076
vn 0.156033 -0.156034 1.555580
vn 0.434235 -1.089865 1.003419
vn 0.126102 -1.088664 1.097706
vn 0.138466 -1.428948 0.588509
vn 0.545203 -1.334621 0.540305
vn 0.152879 -1.556742 0.152820
vn 0.590496 -1.428236 0.135954
vn -0.684023 -1.388996 0.138461
vn -0.540290 -1.334620 0.545212
vn -1.035272 -1.019269 0.494659
vn -1.169154 -1.017211 0.126098
vn -0.175830 -1.552058 0.175883
vn -0.135955 -1.388288 0.686003
vn -0.409101 -1.051205 1.054785
vn -0.862533 -0.905335 0.905861
vn -0.095576 -1.053339 1.139174
vn -0.138412 -0.588546 1.428971
vn -0.545190 -0.540263 1.334632
vn -0.152905 -0.152842 1.556732
vn -0.590526 -0.135905 1.428263
vn -1.039178 -0.492136 1.015886
vn -1.098734 -0.128526 1.086125
vn -1.311790 -0.558768 0.553763
vn -1.422692 -0.149579 0.593582
vn -1.463012 -0.498373 0.147057
vn -1.560812 -0.103691 0.156034
f 1//1 2//2 3//3
f 3//3 4//4 1//1
f 4//4 3//3 5//5
f 5//5 6//6 4//4
f 7//7 1//1 4//4
f 4//4 8//8 7//7
f 8//8 4//4 6//6
f 6//6 9//9 8//8
f 10//10 8//8 9//9
f 9//9 11//11 10//10
f 12//12 10//10 11//11
f 11//11 13//13 12//12
f 14//14 7//7 8//8
f 8//8 10//10 14//14
f 15//15 14//14 10//10
f 10//10 12//12 15//15
f 16//16 17//17 14//14
f 14//14 15//15 16//16
f 18//18 19//19 17//17
f 17//17 16//16 18//18
f 17//17 1//1 7//7
f 7//7 14//14 17//17
f 19//19 2//2 1//1
f 1//1 17//17 19//19
f 20//20 21//21 22//22
f 22//22 23//23 20//20
f 24//24 25//25 21//21
f 21//21 20//20 24//24
f 21//21 26//26 27//27
f 27//27 22//22 21//21
f 25//25 28//28 26//26
f 26//26 21//21 25//25
f 28//28 29//29 30//30
f 30//30 26//26 28//28
f 29//29 31//31 32//32
f 32//32 30//30 29//29
f 26//26 30//30 33//33
f 33//33 27//27 26//26
f 30//30 32//32 34//34
f 34//34 33//33 30//30
f 33//33 34//34 35//35
f 35//35 36//36 33//33
f 37//37 36//36 35//35
f 35//35 38//38 37//37
f 27//27 33//33 36//36
f 36//36 22//22 27//27
f 23//23 22//22 36//36
f 36//36 37//37 23//23
f 39//39 40//40 41//41
f 41//41 42//42 39//39
f 40//40 43//43 44//44
f 44//44 41//41 40//40
f 42//42 41//41 45//45
f 45//45 46//46 42//42
f 41//41 44//44 47//47
f 47//47 45//45 41//41
f 45//45 47//47 48//48
f 48//48 49//49 45//45
f 50//50 49//49 48//48
f 48//48 51//51 50//50
f 46//46 45//45 49//49
f 49//49 52//52 46//46
f 53//53 52//52 49//49
f 49//49 50//50 53//53
f 54//54 55//55 52//52
f 52//52 53//53 54//54
f 56//56 57//57 55//55
f 55//55 54//54 56//56
f 55//55 42//42 46//46
f 46//46 52//52 55//55
f 57//57 39//39 42//42
f 42//42 55//55 57//57
f 58//58 59//59 60//60
f 60//60 61//61 58//58
f 62//62 63//63 59//59
f 59//59 58//58 62//62
f 59//59 64//64 65//65
f 65//65 60//60 59//59
f 63//63 66//66 64//64
f 64//64 59//59 63//63
f 64//64 66//66 67//67
f 67//67 68//68 64//64
f 68//68 67//67 69//69
f 69//69 70//70 68//68
f 65//65 64//64 68//68
f 68//68 71//71 65//65
f 71//71 68//68 70//70
f 70//70 72//72 71//71
f 73//73 71//71 72//72
f 72//72 74//74 73//73
f 75//75 73//73 74//74
f 74//74 76//76 75//75
f 60//60 65//65 71//71
f 71//71 73//73 60//60
f 61//61 60//60 73//73
f 73//73 75//75 61//61
f 77//77 78//78 79//79
f 79//79 80//80 77//77
f 81//81 77//77 80//80
f 80//80 82//82 81//81
f 83//83 84//84 78//78
f 78//78 77//77 83//83
f 85//85 83//83 77//77
f 77//77 81//81 85//85
f 86//86 87//87 83//83
f 83//83 85//85 86//86
f 88//88 89//89 87//87
f 87//87 86//86 88//88
f 87//87 90//90 84//84
f 84//84 83//83 87//87
f 89//89 91//91 90//90
f 90//90 87//87 89//89
f 90//90 91//91 92//92
f 92//92 93//93 90//90
f 93//93 92//92 94//94
f 94//94 95//95 93//93
f 84//84 90//90 93//93
f 93//93 78//78 84//84
f 78//78 93//93 95//95
f 95//95 79//79 78//78
f 96//96 97//97 98//98
f 98//98 99//99 96//96
f 100//100 99//99 98//98
f 98//98 101//101 100//100
f 102//102 96//96 99//99
f 99//99 103//103 102//102
f 104//104 103//103 99//99
f 99//99 100//100 104//104
f 105//105 106//106 103//103
f 103//103 104//104 105//105
f 107//107 108//108 106//106
f 106//106 105//105 107//107
f 106//106 109//109 102//102
f 102//102 103//103 106//106
f 108//108 110//110 109//109
f 109//109 106//106 108//108
f 110//110 111//111 112//112
f 112//112 109//109 110//110
f 111//111 113//113 114//114
f 114//114 112//112 111//111
f 109//109 112//112 96//96
f 96//96 102//102 109//109
f 112//112 114//114 97//97
f 97//97 96//96 112//112
f 115//115 116//116 117//117
f 117//117 118//118 115//115
f 116//116 119//119 120//120
f 120//120 117//117 116//116
f 118//118 117//117 121//121
f 121//121 122//122 118//118
f 117//117 120//120 123//123
f 123//123 121//121 117//117
f 121//121 123//123 124//124
f 124//124 125//125 121//121
f 126//126 125//125 124//124
f 124//124 127//127 126//126
f 122//122 121//121 125//125
f 125//125 128//128 122//122
f 129//129 128//128 125//125
f 125//125 126//126 129//129
f 130//130 131//131 128//128
f 128//128 129//129 130//130
f 132//132 133//133 131//131
f 131//131 130//130 132//132
f 131//131 118//118 122//122
f 122//122 128//128 131//131
f 133//133 115//115 118//118
f 118//118 131//131 133//133
f 134//134 135//135 136//136
f 136//136 137//137 134//134
f 138//138 139//139 135//135
f 135//135 134//134 138//138
f 135//135 140//140 141//141
f 141//141 136//136 135//135
f 139//139 142//142 140//140
f 140//140 135//135 139//139
f 140//140 142//142 143//143
f 143//143 144//144 140//140
f 144//144 143//143 145//145
f 145//145 146//146 144//144
f 141//141 140//140 144//144
f 144//144 147//147 141//141
f 147//147 144//144 146//146
f 146//146 148//148 147//147
f 149//149 147//147 148//148
f 148//148 150//150 149//149
f 151//151 149//149 150//150
f 150//150 152//152 151//151
f 136//136 141//141 147//147
f 147//147 149//149 136//136
f 137//137 136//136 149//149
f 149//149 151//151 137//137
f 24//24 20//20 19//19
f 19//19 18//18 24//24
f 20//20 23//23 2//2
f 2//2 19//19 20//20
f 23//23 37//37 3//3
f 3//3 2//2 23//23
f 37//37 38//38 5//5
f 5//5 3//3 37//37
f 6//6 5//5 62//62
f 62//62 58//58 6//6
f 9//9 6//6 58//58
f 58//58 61//61 9//9
f 11//11 9//9 61//61
f 61//61 75//75 11//11
f 13//13 11//11 75//75
f 75//75 76//76 13//13
f 82//82 80//80 12//12
f 12//12 13//13 82//82
f 80//80 79//79 15//15
f 15//15 12//12 80//80
f 79//79 95//95 16//16
f 16//16 15//15 79//79
f 95//95 94//94 18//18
f 18//18 16//16 95//95
f 32//32 31//31 43//43
f 43//43 40//40 32//32
f 34//34 32//32 40//40
f 40//40 39//39 34//34
f 35//35 34//34 39//39
f 39//39 57//57 35//35
f 38//38 35//35 57//57
f 57//57 56//56 38//38
f 101//101 98//98 25//25
f 25//25 24//24 101//101
f 98//98 97//97 28//28
f 28//28 25//25 98//98
f 97//97 114//114 29//29
f 29//29 28//28 97//97
f 114//114 113//113 31//31
f 31//31 29//29 114//114
f 67//67 50//50 51//51
f 51//51 69//69 67//67
f 66//66 53//53 50//50
f 50//50 67//67 66//66
f 63//63 54//54 53//53
f 53//53 66//66 63//63
f 62//62 56//56 54//54
f 54//54 63//63 62//62
f 44//44 43//43 119//119
f 119//119 116//116 44//44
f 47//47 44//44 116//116
f 116//116 115//115 47//47
f 48//48 47//47 115//115
f 115//115 133//133 48//48
f 51//51 48//48 133//133
f 133//133 132//132 51//51
f 70//70 69//69 138//138
f 138//138 134//134 70//70
f 72//72 70//70 134//134
f 134//134 137//137 72//72
f 74//74 72//72 137//137
f 137//137 151//151 74//74
f 76//76 74//74 151//151
f 151//151 152//152 76//76
f 107//107 105//105 89//89
f 89//89 88//88 107//107
f 105//105 104//104 91//91
f 91//91 89//89 105//105
f 104//104 100//100 92//92
f 92//92 91//91 104//104
f 100//100 101//101 94//94
f 94//94 92//92 100//100
f 152//152 150//150 81//81
f 81//81 82//82 152//152
f 150//150 148//148 85//85
f 85//85 81//81 150//150
f 148//148 146//146 86//86
f 86//86 85//85 148//148
f 146//146 145//145 88//88
f 88//88 86//86 146//146
f 127//127 124//124 108//108
f 108//108 107//107 127//127
f 124//124 123//123 110//110
f 110//110 108//108 124//124
f 123//123 120//120 111//111
f 111//111 110//110 123//123
f 120//120 119//119 113//113
f 113//113 111//111 120//120
f 143//143 126//126 127//127
f 127//127 145//145 143//143
f 142//142 129//129 126//126
f 126//126 143//143 142//142
f 139//139 130//130 129//129
f 129//129 142//142 139//139
f 138//138 132//132 130//130
f 130//130 139//139 138//138
f 94//94 101//101 24//24
f 24//24 18//18 94//94
f 119//119 43//43 31//31
f 31//31 113//113 119//119
f 69//69 51//51 132//132
f 132//132 138//138 69//69
f 152//152 82//82 13//13
f 13//13 76//76 152//152
f 5//5 38//38 56//56
f 56//56 62//62 5//5
f 145//145 127//127 107//107
f 107//107 88//88 145//145
